<svg xmlns="http://www.w3.org/2000/svg" version="1.1" xmlns:xlink="http://www.w3.org/1999/xlink" xmlns:svgjs="http://svgjs.dev/svgjs" width="1500" height="1500" viewBox="0 0 1500 1500"><rect width="1500" height="1500" fill="#ffffff"></rect><g transform="matrix(0.6666666666666666,0,0,0.6666666666666666,250.1338871559633,372.6391363022942)"><svg viewBox="0 0 327 247" data-background-color="#ffffff" preserveAspectRatio="xMidYMid meet" height="1133" width="1500" xmlns="http://www.w3.org/2000/svg" xmlns:xlink="http://www.w3.org/1999/xlink"><g id="tight-bounds" transform="matrix(1,0,0,1,-0.04378109999998969,-0.09999999999999432)"><svg viewBox="0 0 327.0875622 247.2" height="247.2" width="327.0875622"><g><svg viewBox="0 0 327.0875622 247.2" height="247.2" width="327.0875622"><g><svg viewBox="0 0 166.08749999999998 247.2" height="247.2" width="166.08749999999998"><g id="textblocktransform"><svg viewBox="0 0 166.08749999999998 247.2" height="247.2" width="166.08749999999998" id="textblock"><g><svg viewBox="0 0 166.08749999999998 247.2" height="247.2" width="166.08749999999998"><g transform="matrix(1,0,0,1,0,0)"><svg width="166.08749999999998" viewBox="2.6 -35.2 23.65 35.2" height="247.2" data-palette-color="#da7500"><path d="M3 0Q2.75 0 2.75-0.5L2.75-0.5Q2.75-1.05 3-1.5 3.25-1.95 3.85-2.55L3.85-2.55Q5-3.6 5.35-4.08 5.7-4.55 5.88-5.33 6.05-6.1 6.5-8.6L6.5-8.6 9.55-26.4Q9.75-27.65 11.28-28.9 12.8-30.15 14-30.15L14-30.15Q14.55-30.15 14.55-29.9L14.55-29.9Q14.55-29.75 14.08-29.05 13.6-28.35 13.35-26.7L13.35-26.7 11.85-17.15Q12.55-17 14.05-17L14.05-17Q16.45-17 18.32-18.13 20.2-19.25 21.25-21.2 22.3-23.15 22.3-25.55L22.3-25.55Q22.3-28.95 20.2-30.73 18.1-32.5 14.2-32.5L14.2-32.5Q11.2-32.5 8.65-31.4 6.1-30.3 4.15-28.1L4.15-28.1Q3.7-27.5 3.45-27.28 3.2-27.05 2.9-27.05L2.9-27.05Q2.6-27.05 2.6-27.4L2.6-27.4 2.65-27.95Q3.1-29.8 4.9-31.48 6.7-33.15 9.55-34.18 12.4-35.2 15.8-35.2L15.8-35.2Q20.55-35.2 23.4-33.08 26.25-30.95 26.25-27.2L26.25-27.2Q26.25-23.9 24.05-21.03 21.85-18.15 18.38-16.32 14.9-14.5 11.2-14.2L11.2-14.2 9.75-5.5Q9.5-4.2 8.8-3.4L8.8-3.4 8.8-3.35Q9.05-3.25 9.55-3.08 10.05-2.9 10.55-2.9L10.55-2.9Q11.15-2.9 11.78-3.18 12.4-3.45 12.6-3.45L12.6-3.45Q12.9-3.45 12.9-3.1L12.9-3.1Q12.9-2.65 12.3-2.05L12.3-2.05Q10.4 0 9.25 0L9.25 0Q8.8 0 7.6-0.4L7.6-0.4Q6-0.85 5.5-0.85L5.5-0.85Q4.75-0.85 3.95-0.43 3.15 0 3 0L3 0Z" opacity="1" transform="matrix(1,0,0,1,0,0)" fill="#da7500" class="wordmark-text-0" data-fill-palette-color="primary" id="text-0"></path></svg></g></svg></g></svg></g></svg></g><g transform="matrix(1,0,0,1,224.44548719999997,43.07544493174048)"><svg viewBox="0 0 102.64207499999999 161.04911013651903" height="161.04911013651903" width="102.64207499999999"><g><svg xmlns="http://www.w3.org/2000/svg" xmlns:xlink="http://www.w3.org/1999/xlink" version="1.1" x="0" y="0" viewBox="26.028 12.385 47.94600015876808 75.229" enable-background="new 0 0 100 100" xml:space="preserve" height="161.04911013651903" width="102.64207499999999" class="icon-icon-0" data-fill-palette-color="accent" id="icon-0"><g fill="#ffb30a" data-fill-palette-color="accent"><path fill="#ffb30a" d="M36.555 12.385c-5.805 0-10.527 4.723-10.527 10.528 0 5.805 4.723 10.527 10.527 10.527s10.527-4.723 10.527-10.527C47.082 17.108 42.359 12.385 36.555 12.385z" data-fill-palette-color="accent"></path><path fill="#ffb30a" d="M36.555 66.559c-5.805 0-10.527 4.723-10.527 10.528 0 5.805 4.723 10.527 10.527 10.527s10.527-4.723 10.527-10.527C47.082 71.282 42.359 66.559 36.555 66.559z" data-fill-palette-color="accent"></path><path fill="#ffb30a" d="M36.555 40.176c-5.805 0-10.527 4.723-10.527 10.528 0 5.805 4.723 10.527 10.527 10.527s10.527-4.723 10.527-10.527C47.082 44.899 42.359 40.176 36.555 40.176z" data-fill-palette-color="accent"></path><path fill="#ffb30a" d="M63.447 12.385c-5.805 0-10.527 4.723-10.527 10.528 0 5.805 4.723 10.527 10.527 10.527s10.527-4.723 10.527-10.527C73.975 17.108 69.252 12.385 63.447 12.385z" data-fill-palette-color="accent"></path><path fill="#ffb30a" d="M63.447 44.926c-2.604 0-4.721 2.117-4.721 4.72 0 2.604 2.117 4.722 4.721 4.722 2.602 0 4.721-2.118 4.721-4.722C68.168 47.043 66.049 44.926 63.447 44.926z" data-fill-palette-color="accent"></path><path fill="#ffb30a" d="M63.447 71.309c-2.604 0-4.721 2.117-4.721 4.72 0 2.604 2.117 4.722 4.721 4.722 2.602 0 4.721-2.118 4.721-4.722C68.168 73.426 66.049 71.309 63.447 71.309z" data-fill-palette-color="accent"></path></g></svg></g></svg></g></svg></g><defs></defs></svg><rect width="327.0875622" height="247.2" fill="none" stroke="none" visibility="hidden"></rect></g></svg></g></svg>